<?xml version="1.0" encoding="UTF-8" standalone="no"?>
<svg xmlns="http://www.w3.org/2000/svg" xmlns:xlink="http://www.w3.org/1999/xlink" contentScriptType="application/ecmascript" contentStyleType="text/css" height="428px" preserveAspectRatio="none" style="width:532px;height:428px;background:#FFFFFF;" version="1.1" viewBox="0 0 532 428" width="532px" zoomAndPan="magnify"><defs><filter height="300%" id="frdqy1fdbj6m1" width="300%" x="-1" y="-1"><feGaussianBlur result="blurOut" stdDeviation="2.0"/><feColorMatrix in="blurOut" result="blurOut2" type="matrix" values="0 0 0 0 0 0 0 0 0 0 0 0 0 0 0 0 0 0 .4 0"/><feOffset dx="4.0" dy="4.0" in="blurOut2" result="blurOut3"/><feBlend in="SourceGraphic" in2="blurOut3" mode="normal"/></filter></defs><g><!--MD5=[3fd616f346a44cd59a91eb10b19e157c]
class User--><rect codeLine="1" fill="#FEFECE" filter="url(#frdqy1fdbj6m1)" height="99.2188" id="User" style="stroke:#A80036;stroke-width:1.5;" width="143" x="375" y="194.471"/><ellipse cx="427.75" cy="210.471" fill="#ADD1B2" rx="11" ry="11" style="stroke:#A80036;stroke-width:1.0;"/><path d="M430.0938,206.1429 C429.1563,205.7054 428.5625,205.5648 427.6875,205.5648 C425.0625,205.5648 423.0625,207.6429 423.0625,210.3616 L423.0625,211.4866 C423.0625,214.0648 425.1719,215.9554 428.0625,215.9554 C429.2813,215.9554 430.4375,215.6585 431.1875,215.1116 C431.7656,214.7054 432.0938,214.2523 432.0938,213.8616 C432.0938,213.4085 431.7031,213.0179 431.2344,213.0179 C431.0156,213.0179 430.8125,213.096 430.625,213.2835 C430.1719,213.7679 430.1719,213.7679 429.9844,213.8616 C429.5625,214.1273 428.875,214.2523 428.1094,214.2523 C426.0625,214.2523 424.7656,213.1585 424.7656,211.4554 L424.7656,210.3616 C424.7656,208.5804 426.0156,207.2679 427.75,207.2679 C428.3281,207.2679 428.9375,207.4241 429.4063,207.6741 C429.8906,207.9554 430.0625,208.1741 430.1563,208.5804 C430.2188,208.9866 430.25,209.1116 430.3906,209.2366 C430.5313,209.3773 430.7656,209.4866 430.9844,209.4866 C431.25,209.4866 431.5156,209.346 431.6875,209.1273 C431.7969,208.971 431.8281,208.7835 431.8281,208.3616 L431.8281,206.9398 C431.8281,206.5023 431.8125,206.3773 431.7188,206.221 C431.5625,205.9554 431.2813,205.8148 430.9844,205.8148 C430.6875,205.8148 430.4844,205.9085 430.2656,206.221 L430.0938,206.1429 Z " fill="#000000"/><text fill="#000000" font-family="sans-serif" font-size="12" lengthAdjust="spacing" textLength="29" x="448.25" y="214.6253">User</text><line style="stroke:#A80036;stroke-width:1.5;" x1="376" x2="517" y1="226.471" y2="226.471"/><ellipse cx="386" cy="237.471" rx="3" ry="3" style="stroke:#038048;stroke-width:1.0;fill:none;"/><text fill="#000000" font-family="sans-serif" font-size="11" lengthAdjust="spacing" textLength="90" x="395" y="240.6814">String lastname</text><ellipse cx="386" cy="250.2757" rx="3" ry="3" style="stroke:#038048;stroke-width:1.0;fill:none;"/><text fill="#000000" font-family="sans-serif" font-size="11" lengthAdjust="spacing" textLength="91" x="395" y="253.4861">String firstname</text><ellipse cx="386" cy="263.0804" rx="3" ry="3" style="stroke:#038048;stroke-width:1.0;fill:none;"/><text fill="#000000" font-family="sans-serif" font-size="11" lengthAdjust="spacing" textLength="90" x="395" y="266.2908">String password</text><ellipse cx="386" cy="275.8851" rx="3" ry="3" style="stroke:#038048;stroke-width:1.0;fill:none;"/><text fill="#000000" font-family="sans-serif" font-size="11" lengthAdjust="spacing" textLength="117" x="395" y="279.0955">Date inscriptionDate</text><line style="stroke:#A80036;stroke-width:1.5;" x1="376" x2="517" y1="285.6898" y2="285.6898"/><!--MD5=[b34797a66dc35cbf1d65f7e3ca75530e]
class Task--><rect codeLine="8" fill="#FEFECE" filter="url(#frdqy1fdbj6m1)" height="86.4141" id="Task" style="stroke:#A80036;stroke-width:1.5;" width="125" x="7" y="200.971"/><ellipse cx="51.25" cy="216.971" fill="#ADD1B2" rx="11" ry="11" style="stroke:#A80036;stroke-width:1.0;"/><path d="M53.5938,212.6429 C52.6563,212.2054 52.0625,212.0648 51.1875,212.0648 C48.5625,212.0648 46.5625,214.1429 46.5625,216.8616 L46.5625,217.9866 C46.5625,220.5648 48.6719,222.4554 51.5625,222.4554 C52.7813,222.4554 53.9375,222.1585 54.6875,221.6116 C55.2656,221.2054 55.5938,220.7523 55.5938,220.3616 C55.5938,219.9085 55.2031,219.5179 54.7344,219.5179 C54.5156,219.5179 54.3125,219.596 54.125,219.7835 C53.6719,220.2679 53.6719,220.2679 53.4844,220.3616 C53.0625,220.6273 52.375,220.7523 51.6094,220.7523 C49.5625,220.7523 48.2656,219.6585 48.2656,217.9554 L48.2656,216.8616 C48.2656,215.0804 49.5156,213.7679 51.25,213.7679 C51.8281,213.7679 52.4375,213.9241 52.9063,214.1741 C53.3906,214.4554 53.5625,214.6741 53.6563,215.0804 C53.7188,215.4866 53.75,215.6116 53.8906,215.7366 C54.0313,215.8773 54.2656,215.9866 54.4844,215.9866 C54.75,215.9866 55.0156,215.846 55.1875,215.6273 C55.2969,215.471 55.3281,215.2835 55.3281,214.8616 L55.3281,213.4398 C55.3281,213.0023 55.3125,212.8773 55.2188,212.721 C55.0625,212.4554 54.7813,212.3148 54.4844,212.3148 C54.1875,212.3148 53.9844,212.4085 53.7656,212.721 L53.5938,212.6429 Z " fill="#000000"/><text fill="#000000" font-family="sans-serif" font-size="12" lengthAdjust="spacing" textLength="28" x="71.75" y="221.1253">Task</text><line style="stroke:#A80036;stroke-width:1.5;" x1="8" x2="131" y1="232.971" y2="232.971"/><ellipse cx="18" cy="243.971" rx="3" ry="3" style="stroke:#038048;stroke-width:1.0;fill:none;"/><text fill="#000000" font-family="sans-serif" font-size="11" lengthAdjust="spacing" textLength="36" x="27" y="247.1814">author</text><ellipse cx="18" cy="256.7757" rx="3" ry="3" style="stroke:#038048;stroke-width:1.0;fill:none;"/><text fill="#000000" font-family="sans-serif" font-size="11" lengthAdjust="spacing" textLength="99" x="27" y="259.9861">String description</text><ellipse cx="18" cy="269.5804" rx="3" ry="3" style="stroke:#038048;stroke-width:1.0;fill:none;"/><text fill="#000000" font-family="sans-serif" font-size="11" lengthAdjust="spacing" textLength="80" x="27" y="272.7908">Boolean done</text><line style="stroke:#A80036;stroke-width:1.5;" x1="8" x2="131" y1="279.3851" y2="279.3851"/><!--MD5=[1f8fbffc1445fbdf7e25af61c62ad345]
class Domain--><rect codeLine="14" fill="#FEFECE" filter="url(#frdqy1fdbj6m1)" height="60.8047" id="Domain" style="stroke:#A80036;stroke-width:1.5;" width="82" x="305.5" y="353.471"/><ellipse cx="322.75" cy="369.471" fill="#ADD1B2" rx="11" ry="11" style="stroke:#A80036;stroke-width:1.0;"/><path d="M325.0938,365.1429 C324.1563,364.7054 323.5625,364.5648 322.6875,364.5648 C320.0625,364.5648 318.0625,366.6429 318.0625,369.3616 L318.0625,370.4866 C318.0625,373.0648 320.1719,374.9554 323.0625,374.9554 C324.2813,374.9554 325.4375,374.6585 326.1875,374.1116 C326.7656,373.7054 327.0938,373.2523 327.0938,372.8616 C327.0938,372.4085 326.7031,372.0179 326.2344,372.0179 C326.0156,372.0179 325.8125,372.096 325.625,372.2835 C325.1719,372.7679 325.1719,372.7679 324.9844,372.8616 C324.5625,373.1273 323.875,373.2523 323.1094,373.2523 C321.0625,373.2523 319.7656,372.1585 319.7656,370.4554 L319.7656,369.3616 C319.7656,367.5804 321.0156,366.2679 322.75,366.2679 C323.3281,366.2679 323.9375,366.4241 324.4063,366.6741 C324.8906,366.9554 325.0625,367.1741 325.1563,367.5804 C325.2188,367.9866 325.25,368.1116 325.3906,368.2366 C325.5313,368.3773 325.7656,368.4866 325.9844,368.4866 C326.25,368.4866 326.5156,368.346 326.6875,368.1273 C326.7969,367.971 326.8281,367.7835 326.8281,367.3616 L326.8281,365.9398 C326.8281,365.5023 326.8125,365.3773 326.7188,365.221 C326.5625,364.9554 326.2813,364.8148 325.9844,364.8148 C325.6875,364.8148 325.4844,364.9085 325.2656,365.221 L325.0938,365.1429 Z " fill="#000000"/><text fill="#000000" font-family="sans-serif" font-size="12" lengthAdjust="spacing" textLength="45" x="337.25" y="373.6253">Domain</text><line style="stroke:#A80036;stroke-width:1.5;" x1="306.5" x2="386.5" y1="385.471" y2="385.471"/><text fill="#000000" font-family="sans-serif" font-size="11" lengthAdjust="spacing" textLength="70" x="311.5" y="399.6814">String name</text><line style="stroke:#A80036;stroke-width:1.5;" x1="306.5" x2="386.5" y1="406.2757" y2="406.2757"/><!--MD5=[bea5b0d46523efab5ea1c1d339f396f0]
class Message--><rect codeLine="18" fill="#FEFECE" filter="url(#frdqy1fdbj6m1)" height="86.4141" id="Message" style="stroke:#A80036;stroke-width:1.5;" width="108" x="392.5" y="48.471"/><ellipse cx="416.95" cy="64.471" fill="#ADD1B2" rx="11" ry="11" style="stroke:#A80036;stroke-width:1.0;"/><path d="M419.2938,60.1429 C418.3563,59.7054 417.7625,59.5648 416.8875,59.5648 C414.2625,59.5648 412.2625,61.6429 412.2625,64.3616 L412.2625,65.4866 C412.2625,68.0648 414.3719,69.9554 417.2625,69.9554 C418.4813,69.9554 419.6375,69.6585 420.3875,69.1116 C420.9656,68.7054 421.2938,68.2523 421.2938,67.8616 C421.2938,67.4085 420.9031,67.0179 420.4344,67.0179 C420.2156,67.0179 420.0125,67.096 419.825,67.2835 C419.3719,67.7679 419.3719,67.7679 419.1844,67.8616 C418.7625,68.1273 418.075,68.2523 417.3094,68.2523 C415.2625,68.2523 413.9656,67.1585 413.9656,65.4554 L413.9656,64.3616 C413.9656,62.5804 415.2156,61.2679 416.95,61.2679 C417.5281,61.2679 418.1375,61.4241 418.6063,61.6741 C419.0906,61.9554 419.2625,62.1741 419.3563,62.5804 C419.4188,62.9866 419.45,63.1116 419.5906,63.2366 C419.7313,63.3773 419.9656,63.4866 420.1844,63.4866 C420.45,63.4866 420.7156,63.346 420.8875,63.1273 C420.9969,62.971 421.0281,62.7835 421.0281,62.3616 L421.0281,60.9398 C421.0281,60.5023 421.0125,60.3773 420.9188,60.221 C420.7625,59.9554 420.4813,59.8148 420.1844,59.8148 C419.8875,59.8148 419.6844,59.9085 419.4656,60.221 L419.2938,60.1429 Z " fill="#000000"/><text fill="#000000" font-family="sans-serif" font-size="12" lengthAdjust="spacing" textLength="55" x="433.05" y="68.6253">Message</text><line style="stroke:#A80036;stroke-width:1.5;" x1="393.5" x2="499.5" y1="80.471" y2="80.471"/><ellipse cx="403.5" cy="91.471" rx="3" ry="3" style="stroke:#038048;stroke-width:1.0;fill:none;"/><text fill="#000000" font-family="sans-serif" font-size="11" lengthAdjust="spacing" textLength="36" x="412.5" y="94.6814">author</text><ellipse cx="403.5" cy="104.2757" rx="3" ry="3" style="stroke:#038048;stroke-width:1.0;fill:none;"/><text fill="#000000" font-family="sans-serif" font-size="11" lengthAdjust="spacing" textLength="25" x="412.5" y="107.4861">dest</text><ellipse cx="403.5" cy="117.0804" rx="3" ry="3" style="stroke:#038048;stroke-width:1.0;fill:none;"/><text fill="#000000" font-family="sans-serif" font-size="11" lengthAdjust="spacing" textLength="82" x="412.5" y="120.2908">String Content</text><line style="stroke:#A80036;stroke-width:1.5;" x1="393.5" x2="499.5" y1="126.8851" y2="126.8851"/><!--MD5=[4555bb1b0911a5adf28ce6dbe60fed2e]
class Transaction--><rect codeLine="24" fill="#FEFECE" filter="url(#frdqy1fdbj6m1)" height="73.6094" id="Transaction" style="stroke:#A80036;stroke-width:1.5;" width="101" x="167" y="206.971"/><ellipse cx="182" cy="222.971" fill="#ADD1B2" rx="11" ry="11" style="stroke:#A80036;stroke-width:1.0;"/><path d="M184.3438,218.6429 C183.4063,218.2054 182.8125,218.0648 181.9375,218.0648 C179.3125,218.0648 177.3125,220.1429 177.3125,222.8616 L177.3125,223.9866 C177.3125,226.5648 179.4219,228.4554 182.3125,228.4554 C183.5313,228.4554 184.6875,228.1585 185.4375,227.6116 C186.0156,227.2054 186.3438,226.7523 186.3438,226.3616 C186.3438,225.9085 185.9531,225.5179 185.4844,225.5179 C185.2656,225.5179 185.0625,225.596 184.875,225.7835 C184.4219,226.2679 184.4219,226.2679 184.2344,226.3616 C183.8125,226.6273 183.125,226.7523 182.3594,226.7523 C180.3125,226.7523 179.0156,225.6585 179.0156,223.9554 L179.0156,222.8616 C179.0156,221.0804 180.2656,219.7679 182,219.7679 C182.5781,219.7679 183.1875,219.9241 183.6563,220.1741 C184.1406,220.4554 184.3125,220.6741 184.4063,221.0804 C184.4688,221.4866 184.5,221.6116 184.6406,221.7366 C184.7813,221.8773 185.0156,221.9866 185.2344,221.9866 C185.5,221.9866 185.7656,221.846 185.9375,221.6273 C186.0469,221.471 186.0781,221.2835 186.0781,220.8616 L186.0781,219.4398 C186.0781,219.0023 186.0625,218.8773 185.9688,218.721 C185.8125,218.4554 185.5313,218.3148 185.2344,218.3148 C184.9375,218.3148 184.7344,218.4085 184.5156,218.721 L184.3438,218.6429 Z " fill="#000000"/><text fill="#000000" font-family="sans-serif" font-size="12" lengthAdjust="spacing" textLength="69" x="196" y="227.1253">Transaction</text><line style="stroke:#A80036;stroke-width:1.5;" x1="168" x2="267" y1="238.971" y2="238.971"/><ellipse cx="178" cy="249.971" rx="3" ry="3" style="stroke:#038048;stroke-width:1.0;fill:none;"/><text fill="#000000" font-family="sans-serif" font-size="11" lengthAdjust="spacing" textLength="51" x="187" y="253.1814">Int Value</text><ellipse cx="178" cy="262.7757" rx="3" ry="3" style="stroke:#038048;stroke-width:1.0;fill:none;"/><text fill="#000000" font-family="sans-serif" font-size="11" lengthAdjust="spacing" textLength="60" x="187" y="265.9861">Date Date</text><line style="stroke:#A80036;stroke-width:1.5;" x1="168" x2="267" y1="272.5804" y2="272.5804"/><!--MD5=[44af1887837e86aa2526a2bdc4cb389a]
class TransactionType--><rect codeLine="29" fill="#FEFECE" filter="url(#frdqy1fdbj6m1)" height="48" id="TransactionType" style="stroke:#A80036;stroke-width:1.5;" width="131" x="139" y="359.971"/><ellipse cx="154" cy="375.971" fill="#ADD1B2" rx="11" ry="11" style="stroke:#A80036;stroke-width:1.0;"/><path d="M156.3438,371.6429 C155.4063,371.2054 154.8125,371.0648 153.9375,371.0648 C151.3125,371.0648 149.3125,373.1429 149.3125,375.8616 L149.3125,376.9866 C149.3125,379.5648 151.4219,381.4554 154.3125,381.4554 C155.5313,381.4554 156.6875,381.1585 157.4375,380.6116 C158.0156,380.2054 158.3438,379.7523 158.3438,379.3616 C158.3438,378.9085 157.9531,378.5179 157.4844,378.5179 C157.2656,378.5179 157.0625,378.596 156.875,378.7835 C156.4219,379.2679 156.4219,379.2679 156.2344,379.3616 C155.8125,379.6273 155.125,379.7523 154.3594,379.7523 C152.3125,379.7523 151.0156,378.6585 151.0156,376.9554 L151.0156,375.8616 C151.0156,374.0804 152.2656,372.7679 154,372.7679 C154.5781,372.7679 155.1875,372.9241 155.6563,373.1741 C156.1406,373.4554 156.3125,373.6741 156.4063,374.0804 C156.4688,374.4866 156.5,374.6116 156.6406,374.7366 C156.7813,374.8773 157.0156,374.9866 157.2344,374.9866 C157.5,374.9866 157.7656,374.846 157.9375,374.6273 C158.0469,374.471 158.0781,374.2835 158.0781,373.8616 L158.0781,372.4398 C158.0781,372.0023 158.0625,371.8773 157.9688,371.721 C157.8125,371.4554 157.5313,371.3148 157.2344,371.3148 C156.9375,371.3148 156.7344,371.4085 156.5156,371.721 L156.3438,371.6429 Z " fill="#000000"/><text fill="#000000" font-family="sans-serif" font-size="12" lengthAdjust="spacing" textLength="99" x="168" y="380.1253">TransactionType</text><line style="stroke:#A80036;stroke-width:1.5;" x1="140" x2="269" y1="391.971" y2="391.971"/><line style="stroke:#A80036;stroke-width:1.5;" x1="140" x2="269" y1="399.971" y2="399.971"/><!--MD5=[461026a38b737c4ce5e8254b9a577e21]
class Contract--><rect codeLine="33" fill="#FEFECE" filter="url(#frdqy1fdbj6m1)" height="86.4141" id="Contract" style="stroke:#A80036;stroke-width:1.5;" width="82" x="275.5" y="48.471"/><ellipse cx="290.5" cy="64.471" fill="#ADD1B2" rx="11" ry="11" style="stroke:#A80036;stroke-width:1.0;"/><path d="M292.8438,60.1429 C291.9063,59.7054 291.3125,59.5648 290.4375,59.5648 C287.8125,59.5648 285.8125,61.6429 285.8125,64.3616 L285.8125,65.4866 C285.8125,68.0648 287.9219,69.9554 290.8125,69.9554 C292.0313,69.9554 293.1875,69.6585 293.9375,69.1116 C294.5156,68.7054 294.8438,68.2523 294.8438,67.8616 C294.8438,67.4085 294.4531,67.0179 293.9844,67.0179 C293.7656,67.0179 293.5625,67.096 293.375,67.2835 C292.9219,67.7679 292.9219,67.7679 292.7344,67.8616 C292.3125,68.1273 291.625,68.2523 290.8594,68.2523 C288.8125,68.2523 287.5156,67.1585 287.5156,65.4554 L287.5156,64.3616 C287.5156,62.5804 288.7656,61.2679 290.5,61.2679 C291.0781,61.2679 291.6875,61.4241 292.1563,61.6741 C292.6406,61.9554 292.8125,62.1741 292.9063,62.5804 C292.9688,62.9866 293,63.1116 293.1406,63.2366 C293.2813,63.3773 293.5156,63.4866 293.7344,63.4866 C294,63.4866 294.2656,63.346 294.4375,63.1273 C294.5469,62.971 294.5781,62.7835 294.5781,62.3616 L294.5781,60.9398 C294.5781,60.5023 294.5625,60.3773 294.4688,60.221 C294.3125,59.9554 294.0313,59.8148 293.7344,59.8148 C293.4375,59.8148 293.2344,59.9085 293.0156,60.221 L292.8438,60.1429 Z " fill="#000000"/><text fill="#000000" font-family="sans-serif" font-size="12" lengthAdjust="spacing" textLength="50" x="304.5" y="68.6253">Contract</text><line style="stroke:#A80036;stroke-width:1.5;" x1="276.5" x2="356.5" y1="80.471" y2="80.471"/><ellipse cx="286.5" cy="91.471" rx="3" ry="3" style="stroke:#038048;stroke-width:1.0;fill:none;"/><text fill="#000000" font-family="sans-serif" font-size="11" lengthAdjust="spacing" textLength="41" x="295.5" y="94.6814">mentor</text><ellipse cx="286.5" cy="104.2757" rx="3" ry="3" style="stroke:#038048;stroke-width:1.0;fill:none;"/><text fill="#000000" font-family="sans-serif" font-size="11" lengthAdjust="spacing" textLength="31" x="295.5" y="107.4861">junior</text><ellipse cx="286.5" cy="117.0804" rx="3" ry="3" style="stroke:#038048;stroke-width:1.0;fill:none;"/><text fill="#000000" font-family="sans-serif" font-size="11" lengthAdjust="spacing" textLength="26" x="295.5" y="120.2908">type</text><line style="stroke:#A80036;stroke-width:1.5;" x1="276.5" x2="356.5" y1="126.8851" y2="126.8851"/><!--MD5=[e762170833d07b06faa87c40cb5a3bd7]
class Mentor--><rect codeLine="39" fill="#FEFECE" filter="url(#frdqy1fdbj6m1)" height="48" id="Mentor" style="stroke:#A80036;stroke-width:1.5;" width="74" x="422.5" y="359.971"/><ellipse cx="437.5" cy="375.971" fill="#ADD1B2" rx="11" ry="11" style="stroke:#A80036;stroke-width:1.0;"/><path d="M439.8438,371.6429 C438.9063,371.2054 438.3125,371.0648 437.4375,371.0648 C434.8125,371.0648 432.8125,373.1429 432.8125,375.8616 L432.8125,376.9866 C432.8125,379.5648 434.9219,381.4554 437.8125,381.4554 C439.0313,381.4554 440.1875,381.1585 440.9375,380.6116 C441.5156,380.2054 441.8438,379.7523 441.8438,379.3616 C441.8438,378.9085 441.4531,378.5179 440.9844,378.5179 C440.7656,378.5179 440.5625,378.596 440.375,378.7835 C439.9219,379.2679 439.9219,379.2679 439.7344,379.3616 C439.3125,379.6273 438.625,379.7523 437.8594,379.7523 C435.8125,379.7523 434.5156,378.6585 434.5156,376.9554 L434.5156,375.8616 C434.5156,374.0804 435.7656,372.7679 437.5,372.7679 C438.0781,372.7679 438.6875,372.9241 439.1563,373.1741 C439.6406,373.4554 439.8125,373.6741 439.9063,374.0804 C439.9688,374.4866 440,374.6116 440.1406,374.7366 C440.2813,374.8773 440.5156,374.9866 440.7344,374.9866 C441,374.9866 441.2656,374.846 441.4375,374.6273 C441.5469,374.471 441.5781,374.2835 441.5781,373.8616 L441.5781,372.4398 C441.5781,372.0023 441.5625,371.8773 441.4688,371.721 C441.3125,371.4554 441.0313,371.3148 440.7344,371.3148 C440.4375,371.3148 440.2344,371.4085 440.0156,371.721 L439.8438,371.6429 Z " fill="#000000"/><text fill="#000000" font-family="sans-serif" font-size="12" lengthAdjust="spacing" textLength="42" x="451.5" y="380.1253">Mentor</text><line style="stroke:#A80036;stroke-width:1.5;" x1="423.5" x2="495.5" y1="391.971" y2="391.971"/><line style="stroke:#A80036;stroke-width:1.5;" x1="423.5" x2="495.5" y1="399.971" y2="399.971"/><!--MD5=[2ca1536628238a7dc78c5d90808014f9]
class Session--><rect codeLine="42" fill="#FEFECE" filter="url(#frdqy1fdbj6m1)" height="86.4141" id="Session" style="stroke:#A80036;stroke-width:1.5;" width="107" x="133" y="48.471"/><ellipse cx="160.15" cy="64.471" fill="#ADD1B2" rx="11" ry="11" style="stroke:#A80036;stroke-width:1.0;"/><path d="M162.4938,60.1429 C161.5563,59.7054 160.9625,59.5648 160.0875,59.5648 C157.4625,59.5648 155.4625,61.6429 155.4625,64.3616 L155.4625,65.4866 C155.4625,68.0648 157.5719,69.9554 160.4625,69.9554 C161.6813,69.9554 162.8375,69.6585 163.5875,69.1116 C164.1656,68.7054 164.4938,68.2523 164.4938,67.8616 C164.4938,67.4085 164.1031,67.0179 163.6344,67.0179 C163.4156,67.0179 163.2125,67.096 163.025,67.2835 C162.5719,67.7679 162.5719,67.7679 162.3844,67.8616 C161.9625,68.1273 161.275,68.2523 160.5094,68.2523 C158.4625,68.2523 157.1656,67.1585 157.1656,65.4554 L157.1656,64.3616 C157.1656,62.5804 158.4156,61.2679 160.15,61.2679 C160.7281,61.2679 161.3375,61.4241 161.8063,61.6741 C162.2906,61.9554 162.4625,62.1741 162.5563,62.5804 C162.6188,62.9866 162.65,63.1116 162.7906,63.2366 C162.9313,63.3773 163.1656,63.4866 163.3844,63.4866 C163.65,63.4866 163.9156,63.346 164.0875,63.1273 C164.1969,62.971 164.2281,62.7835 164.2281,62.3616 L164.2281,60.9398 C164.2281,60.5023 164.2125,60.3773 164.1188,60.221 C163.9625,59.9554 163.6813,59.8148 163.3844,59.8148 C163.0875,59.8148 162.8844,59.9085 162.6656,60.221 L162.4938,60.1429 Z " fill="#000000"/><text fill="#000000" font-family="sans-serif" font-size="12" lengthAdjust="spacing" textLength="48" x="176.85" y="68.6253">Session</text><line style="stroke:#A80036;stroke-width:1.5;" x1="134" x2="239" y1="80.471" y2="80.471"/><ellipse cx="144" cy="91.471" rx="3" ry="3" style="stroke:#038048;stroke-width:1.0;fill:none;"/><text fill="#000000" font-family="sans-serif" font-size="11" lengthAdjust="spacing" textLength="58" x="153" y="94.6814">Date date</text><ellipse cx="144" cy="104.2757" rx="3" ry="3" style="stroke:#038048;stroke-width:1.0;fill:none;"/><text fill="#000000" font-family="sans-serif" font-size="11" lengthAdjust="spacing" textLength="80" x="153" y="107.4861">Boolean done</text><ellipse cx="144" cy="117.0804" rx="3" ry="3" style="stroke:#038048;stroke-width:1.0;fill:none;"/><text fill="#000000" font-family="sans-serif" font-size="11" lengthAdjust="spacing" textLength="81" x="153" y="120.2908">String resume</text><line style="stroke:#A80036;stroke-width:1.5;" x1="134" x2="239" y1="126.8851" y2="126.8851"/><!--MD5=[220a1facb698331f902ba28599249992]
link Transaction to TransactionType--><path codeLine="49" d="M214.084,281.229 C212.177,301.473 209.809,326.6116 207.904,346.8357 " fill="none" id="Transaction-to-TransactionType" style="stroke:#A80036;stroke-width:1.0;"/><polygon fill="#FFFFFF" points="206.67,359.9312,211.2151,354.3328,207.7955,347.9841,203.2504,353.5825,206.67,359.9312" style="stroke:#A80036;stroke-width:1.0;"/><!--MD5=[3262b97be6348afb9d7d8730fc28b707]
link Contract to Transaction--><path codeLine="51" d="M288.66,134.794 C276.229,153.69 261.53,176.037 248.727,195.5 " fill="none" id="Contract-to-Transaction" style="stroke:#A80036;stroke-width:1.0;"/><polygon fill="#A80036" points="241.439,206.578,248.0783,203.7638,248.0341,196.5528,241.3948,199.367,241.439,206.578" style="stroke:#A80036;stroke-width:1.0;"/><text fill="#000000" font-family="sans-serif" font-size="13" lengthAdjust="spacing" textLength="8" x="275.5855" y="154.9384">1</text><text fill="#000000" font-family="sans-serif" font-size="13" lengthAdjust="spacing" textLength="7" x="237.952" y="195.9739">*</text><!--MD5=[4c1e9a97b7d42bd915a0bacc4221d1b8]
reverse link User to Domain--><path codeLine="53" d="M403.342,304.53 C391.148,321.357 378.401,338.948 368.075,353.197 " fill="none" id="User-backto-Domain" style="stroke:#A80036;stroke-width:1.0;"/><polygon fill="#FFFFFF" points="411.244,293.625,404.4845,296.1369,404.2034,303.3425,410.9629,300.8306,411.244,293.625" style="stroke:#A80036;stroke-width:1.0;"/><text fill="#000000" font-family="sans-serif" font-size="13" lengthAdjust="spacing" textLength="7" x="398.7939" y="313.7231">*</text><text fill="#000000" font-family="sans-serif" font-size="13" lengthAdjust="spacing" textLength="7" x="364.803" y="342.4037">*</text><!--MD5=[a2b3e6750fae977239d238eb2f6344da]
reverse link Contract to Domain--><path codeLine="54" d="M322.227,147.928 C328.53,208.965 338.429,304.814 343.413,353.0804 " fill="none" id="Contract-backto-Domain" style="stroke:#A80036;stroke-width:1.0;"/><polygon fill="#A80036" points="320.862,134.712,317.4996,141.0912,322.0949,146.6485,325.4573,140.2693,320.862,134.712" style="stroke:#A80036;stroke-width:1.0;"/><text fill="#000000" font-family="sans-serif" font-size="13" lengthAdjust="spacing" textLength="7" x="313.9994" y="154.8433">*</text><text fill="#000000" font-family="sans-serif" font-size="13" lengthAdjust="spacing" textLength="8" x="333.9513" y="342.2631">1</text><!--MD5=[b2032948faafe8f2de7812473169201f]
link Contract to User--><path codeLine="55" d="M360.9022,143.8752 C360.9022,143.8752 396.6397,185.2489 396.6397,185.2489 " fill="none" id="Contract-User" style="stroke:#A80036;stroke-width:1.0;"/><polygon fill="#FFFFFF" points="404.484,194.33,403.5889,187.1747,396.6397,185.2489,397.5348,192.4042,404.484,194.33" style="stroke:#A80036;stroke-width:1.0;"/><polygon fill="#A80036" points="353.058,134.794,353.953,141.9493,360.9022,143.8752,360.0072,136.7199,353.058,134.794" style="stroke:#A80036;stroke-width:1.0;"/><text fill="#000000" font-family="sans-serif" font-size="13" lengthAdjust="spacing" textLength="7" x="351.3266" y="154.9384">*</text><text fill="#000000" font-family="sans-serif" font-size="13" lengthAdjust="spacing" textLength="8" x="390.013" y="183.3554">2</text><!--MD5=[249b8abd4e729a16b977da04c600c214]
link Message to User--><path codeLine="56" d="M446.5,146.794 C446.5,146.794 446.5,182.33 446.5,182.33 " fill="none" id="Message-User" style="stroke:#A80036;stroke-width:1.0;"/><polygon fill="#FFFFFF" points="446.5,194.33,450.5,188.33,446.5,182.33,442.5,188.33,446.5,194.33" style="stroke:#A80036;stroke-width:1.0;"/><polygon fill="#A80036" points="446.5,134.794,442.5,140.794,446.5,146.794,450.5,140.794,446.5,134.794" style="stroke:#A80036;stroke-width:1.0;"/><text fill="#000000" font-family="sans-serif" font-size="13" lengthAdjust="spacing" textLength="7" x="438.9422" y="154.9384">*</text><text fill="#000000" font-family="sans-serif" font-size="13" lengthAdjust="spacing" textLength="8" x="437.9375" y="183.3554">2</text><!--MD5=[251ac5736deb04c5a57ce85e43c083fe]
reverse link Session to Message--><path codeLine="57" d="M237.035,40.048 C248.61,31.207 261.51,23.317 275,18.471 C309.717,6 323.283,6 358,18.471 C375.62,24.8 392.232,36.324 406.201,48.374 " fill="none" id="Session-backto-Message" style="stroke:#A80036;stroke-width:1.0;"/><polygon fill="#FFFFFF" points="226.799,48.374,233.9777,47.6914,236.1087,40.8023,228.9299,41.4849,226.799,48.374" style="stroke:#A80036;stroke-width:1.0;"/><text fill="#000000" font-family="sans-serif" font-size="13" lengthAdjust="spacing" textLength="8" x="224.5842" y="37.3546">1</text><text fill="#000000" font-family="sans-serif" font-size="13" lengthAdjust="spacing" textLength="7" x="392.2205" y="37.3546">*</text><!--MD5=[2c4d378f8b43b6a2878ccd0d494f7829]
link User to Mentor--><path codeLine="59" d="M451.083,293.625 C452.723,311.03 454.541,330.3323 456.067,346.5292 " fill="none" id="User-to-Mentor" style="stroke:#A80036;stroke-width:1.0;"/><polygon fill="#A80036" points="457.321,359.8377,460.7406,353.489,456.1954,347.8906,452.7758,354.2394,457.321,359.8377" style="stroke:#A80036;stroke-width:1.0;"/><!--MD5=[2fcb2ee6aa2f26ff04ab263367f257b3]
link Domain to Mentor--><path codeLine="60" d="M387.551,383.971 C394.811,383.971 402.072,383.971 409.332,383.971 " fill="none" id="Domain-to-Mentor" style="stroke:#A80036;stroke-width:1.0;"/><polygon fill="#FFFFFF" points="422.401,383.971,416.401,379.971,410.401,383.971,416.401,387.971,422.401,383.971" style="stroke:#A80036;stroke-width:1.0;"/><text fill="#000000" font-family="sans-serif" font-size="13" lengthAdjust="spacing" textLength="8" x="395.5757" y="379.7312">1</text><text fill="#000000" font-family="sans-serif" font-size="13" lengthAdjust="spacing" textLength="7" x="407.4081" y="379.5744">*</text><!--MD5=[541b916f19d582c9c4c554f7a3dd74e9]
link Session to Contract--><path codeLine="62" d="M240.074,91.471 C247.413,91.471 254.752,91.471 262.091,91.471 " fill="none" id="Session-to-Contract" style="stroke:#A80036;stroke-width:1.0;"/><polygon fill="#FFFFFF" points="275.302,91.471,269.302,87.471,263.302,91.471,269.302,95.471,275.302,91.471" style="stroke:#A80036;stroke-width:1.0;"/><text fill="#000000" font-family="sans-serif" font-size="13" lengthAdjust="spacing" textLength="7" x="248.1" y="87.4634">*</text><text fill="#000000" font-family="sans-serif" font-size="13" lengthAdjust="spacing" textLength="8" x="259.5336" y="87.2247">1</text><!--MD5=[cf4391e0497f519d98c1dcf2fea4dce1]
reverse link Session to Task--><path codeLine="63" d="M145.449,145.276 C131.265,163.521 115.575,183.704 102.1554,200.966 " fill="none" id="Session-backto-Task" style="stroke:#A80036;stroke-width:1.0;"/><polygon fill="#A80036" points="153.598,134.794,146.7575,137.0759,146.2328,144.2679,153.0734,141.986,153.598,134.794" style="stroke:#A80036;stroke-width:1.0;"/><text fill="#000000" font-family="sans-serif" font-size="13" lengthAdjust="spacing" textLength="8" x="139.7167" y="154.9384">1</text><text fill="#000000" font-family="sans-serif" font-size="13" lengthAdjust="spacing" textLength="7" x="99.802" y="189.9612">*</text><!--MD5=[9393504d9f31cb6456104f8d66957ad6]
@startuml
class User {
  + String lastname
  + String firstname
  + String password
  + Date inscriptionDate
}

class Task {
  + author
  + String description
  + Boolean done
}

Class Domain {
    String name
}

class Message {
  + author
  + dest
  + String Content
}

class Transaction {
 + Int Value
 + Date Date
}

class TransactionType {

}

class Contract {
  + mentor
  + junior
  + type
}

class Mentor {
}

class Session {
  + Date date
  + Boolean done
  + String resume
}


Transaction - -o TransactionType

Contract "1" - -* "*" Transaction

User "*" o- - "*" Domain
Contract "*" *- - "1" Domain
Contract "*" *- -o "2" User
Message "*" *- -o "2" User
Session "1" o- "*" Message

User - -* Mentor
Domain "1" -o "*" Mentor

Session "*" -o "1" Contract 
Session "1" *- - "*" Task
@enduml

PlantUML version 1.2021.17beta3(Unknown compile time)
(GPL source distribution)
Java Runtime: Java(TM) SE Runtime Environment
JVM: Java HotSpot(TM) 64-Bit Server VM
Default Encoding: UTF-8
Language: en
Country: US
--></g></svg>