<?xml version="1.0" encoding="iso-8859-1"?>
<!DOCTYPE svg PUBLIC "-//W3C//DTD SVG 1.1//EN" "http://www.w3.org/Graphics/SVG/1.1/DTD/svg11.dtd">
<svg 
 version="1.1" xmlns="http://www.w3.org/2000/svg" xmlns:xlink="http://www.w3.org/1999/xlink" x="0px" y="0px" width="512px"
	 height="512px" viewBox="0 0 512 512" style="enable-background:new 0 0 512 512;" xml:space="preserve"
><g id="afcae5a789ccd549f9c6e2a2f81657f8"><g></g><g fill="#ffffff"><path style="display: inline;" d="M334.615,216.692c0,43.419-35.196,78.615-78.615,78.615s-78.615-35.196-78.615-78.615
		c0-8.072,1.225-15.854,3.485-23.186c6.157,13.658,19.865,23.186,35.822,23.186c3.424,0,6.726-0.483,9.893-1.306
		c-0.02,0.438-0.065,0.864-0.065,1.306c0,16.283,13.197,29.48,29.48,29.48c16.279,0,29.48-13.197,29.48-29.48
		c0-16.284-13.201-29.481-29.48-29.481c-0.441,0-0.871,0.046-1.305,0.065c0.821-3.167,1.305-6.468,1.305-9.892
		c0-15.958-9.523-29.665-23.186-35.822c7.328-2.261,15.113-3.485,23.186-3.485C299.419,138.077,334.615,173.273,334.615,216.692z
		 M472.192,216.692c0,119.397-96.795,216.192-216.192,216.192c-119.401,0-216.192-96.795-216.192-216.192
		C39.808,97.295,136.599,0.5,256,0.5C375.397,0.5,472.192,97.295,472.192,216.692z M354.27,216.692
		c0-54.271-43.999-98.269-98.27-98.269c-54.274,0-98.269,43.999-98.269,98.269s43.995,98.27,98.269,98.27
		C310.271,314.962,354.27,270.963,354.27,216.692z M440.182,431.479c-4.015-10.038-16.142-18.249-26.951-18.249h-27.059
		c-37.33,24.81-82.081,39.308-130.172,39.308c-48.087,0-92.837-14.498-130.172-39.308H98.769c-10.81,0-22.939,8.211-26.955,18.249
		l-24.709,61.771C43.09,503.289,48.652,511.5,59.461,511.5h393.077c10.81,0,16.368-8.211,12.354-18.249L440.182,431.479z"></path></g></g></svg>