<?xml version="1.0" encoding="iso-8859-1"?>
<!DOCTYPE svg PUBLIC "-//W3C//DTD SVG 1.1//EN" "http://www.w3.org/Graphics/SVG/1.1/DTD/svg11.dtd">
<svg 
 version="1.1" xmlns="http://www.w3.org/2000/svg" xmlns:xlink="http://www.w3.org/1999/xlink" x="0px" y="0px" width="512px"
	 height="512px" viewBox="0 0 512 512" style="enable-background:new 0 0 512 512;" xml:space="preserve"
><g id="7935ec95c421cee6d86eb22ecd10a078"><g></g><path style="display: inline; fill-rule: evenodd; clip-rule: evenodd;" d="M256,0.5C114.893,0.5,0.5,114.893,0.5,256
		S114.893,511.5,256,511.5S511.5,397.107,511.5,256S397.107,0.5,256,0.5z M256,43.083c117.403,0,212.917,95.513,212.917,212.917
		c0,22.705-3.61,44.579-10.222,65.114c-10.188,8.104-27.505,18.904-44.917,16.015c-25.695-4.263-33.01-20.631-78.296-44.854
		C299.673,273.125,256,277.791,256,277.791s-43.673-4.666-79.482,14.483c-45.287,24.224-52.601,40.592-78.301,44.854
		c-17.408,2.89-34.724-7.91-44.912-16.015C46.693,300.579,43.083,278.705,43.083,256C43.083,138.596,138.596,43.083,256,43.083z
		 M256,468.917c-70.919,0-133.813-34.886-172.529-88.369c26.797,19.554,53.295,16.477,53.295,16.477s25.55,5.322,70.346-17.915
		c17.092-8.866,29.555-22.914,37.934-30.849c6.055-5.73,10.954-6.063,10.954-6.063s4.898,0.332,10.953,6.063
		c8.38,7.935,20.843,21.982,37.935,30.849c44.796,23.237,70.346,17.915,70.346,17.915s26.498,3.077,53.296-16.477
		C389.813,434.031,326.92,468.917,256,468.917z M106.958,202.771c0-29.397,23.833-53.229,53.229-53.229s53.229,23.833,53.229,53.229
		c0,29.396-23.833,53.229-53.229,53.229S106.958,232.167,106.958,202.771z M298.583,202.771c0-29.397,23.833-53.229,53.229-53.229
		s53.229,23.833,53.229,53.229c0,29.396-23.833,53.229-53.229,53.229S298.583,232.167,298.583,202.771z"></path></g></svg>