<?xml version="1.0" encoding="iso-8859-1"?>
<!DOCTYPE svg PUBLIC "-//W3C//DTD SVG 1.1//EN" "http://www.w3.org/Graphics/SVG/1.1/DTD/svg11.dtd">
<svg 
 version="1.1" xmlns="http://www.w3.org/2000/svg" xmlns:xlink="http://www.w3.org/1999/xlink" x="0px" y="0px" width="512px"
	 height="512px" viewBox="0 0 512 512" enable-background="new 0 0 512 512" xml:space="preserve"
><g id="2069a460dcf28295e231f3111e058b3f"><g></g><path display="inline" d="M473.125,264.252c3.062-32.9,4.228-90.402-11.538-162.172C440.436,5.786,401.779,0.5,401.779,0.5
		s-3.208,69.623-13.866,117.203C351.221,89.968,305.539,73.5,256,73.5s-95.221,16.468-131.913,44.203
		C113.429,70.123,110.221,0.5,110.221,0.5S71.564,5.786,50.413,102.08c-15.766,71.771-14.6,129.272-11.538,162.172
		C37.681,273.509,37,282.922,37,292.5c0,120.949,98.051,219,219,219s219-98.051,219-219
		C475,282.922,474.319,273.509,473.125,264.252z M402,256l-80.189,41.54l-11.061-27.695L402,256z M201.25,269.845l-11.061,27.695
		L110,256L201.25,269.845z M153.529,443.434l-21.098-93.838l-58.325-42.895c-0.003-0.058-0.007-0.114-0.014-0.172l169.835,65.173
		l-18.25-77.035l18.25-38.518c0,0-65.012-0.078-107.689-101.18C168.314,126.999,210.197,110,256,110s87.686,16.999,119.762,44.969
		c-42.677,101.102-107.688,101.18-107.688,101.18l18.25,38.518l-18.25,77.035l169.835-65.173c-0.007,0.058-0.011,0.114-0.014,0.172
		l-58.325,42.895l-21.099,93.838C329.239,463.341,293.958,475,256,475S182.761,463.341,153.529,443.434z M329,420.25l-36.5-21.9h-73
		l-36.5,21.9l36.5-36.5h73L329,420.25z"></path></g></svg>