<?xml version="1.0" encoding="iso-8859-1"?>
<!DOCTYPE svg PUBLIC "-//W3C//DTD SVG 1.1//EN" "http://www.w3.org/Graphics/SVG/1.1/DTD/svg11.dtd">
<svg 
 version="1.1" xmlns="http://www.w3.org/2000/svg" xmlns:xlink="http://www.w3.org/1999/xlink" x="0px" y="0px" width="512px"
	 height="512px" viewBox="0 0 512 512" enable-background="new 0 0 512 512" xml:space="preserve"
><g id="2069a460dcf28295e231f3111e050c2f"><g></g><path display="inline" d="M176.156,234.708c-29.051,0.004-31.938,10.538-31.938,10.646c0,5.88-4.766,10.646-10.646,10.646
		c-5.88,0-10.646-4.766-10.646-10.646c0-1.306,0.607-31.933,53.229-31.938c52.622,0.004,53.229,30.632,53.229,31.938
		c0,5.88-4.766,10.646-10.646,10.646c-5.88,0-10.646-4.766-10.646-10.646C208.094,245.246,205.208,234.712,176.156,234.708z
		 M335.844,213.417c-52.622,0.004-53.229,30.632-53.229,31.938c0,5.88,4.766,10.646,10.646,10.646
		c5.88,0,10.646-4.766,10.646-10.646c0-0.108,2.886-10.642,31.938-10.646c29.052,0.004,31.938,10.538,31.938,10.646
		c0,5.88,4.766,10.646,10.646,10.646c5.881,0,10.646-4.766,10.646-10.646C389.073,244.048,388.466,213.421,335.844,213.417z
		 M256,319.875c-50.395,0-106.458,14.389-106.458,42.583c0,28.195,56.063,21.292,106.458,21.292c50.393,0,106.458,28.195,106.458,0
		C362.458,341.167,341.167,319.875,256,319.875z M511.5,256c0,141.107-114.393,255.5-255.5,255.5S0.5,397.107,0.5,256
		C0.5,114.893,114.893,0.5,256,0.5c22.664,0,44.596,3.04,65.518,8.579c4.758-2.822,10.226-4.321,16.173-4.321
		c4.116,0,9.88,0.397,17.628,1.214c8.025,0.848,12.13,1.025,14.159,1.025c4.471,0,11.433-0.293,20.697-0.873
		c10.143-0.632,17.607-0.94,22.826-0.94c20.976,0,30.365,14.021,30.365,27.914c0,10.652-4.491,21.125-13.349,31.137
		c-0.731,0.823-1.547,1.805-2.32,2.709c12.301,11.18,23.575,23.469,33.505,36.834c1.801-0.077,4.043-0.193,6.887-0.37
		c6.238-0.389,10.858-0.578,14.118-0.578c14.738,0,25.034,9.689,25.034,23.562c0,8.103-3.269,15.907-9.718,23.196
		c-1.764,1.99-3.772,4.423-5.988,7.249c0.586,1.393,1.102,2.821,1.667,4.227c1.602,0.958,3.136,2.044,4.529,3.364
		c5.061,4.795,7.847,11.334,7.847,18.414c0,3.495-0.682,6.855-1.976,9.939C508.751,213.001,511.5,234.178,511.5,256z
		 M323.289,35.979c0,8.036,4.371,12.659,13.12,13.869c11.166,1.563,22.19,2.346,33.068,2.346c4.051,0,8.284-0.106,12.692-0.32
		c-5.323,7.949-10.579,15.318-15.782,22.215c-2.948,3.911-5.871,7.621-8.782,11.199c-0.678,0.834-1.36,1.678-2.038,2.493
		c-1.185,1.433-2.37,2.83-3.551,4.206c-0.936,1.092-1.872,2.154-2.808,3.21c-0.998,1.133-2,2.283-2.994,3.375
		c-1.829,2.004-3.651,3.936-5.464,5.801c-0.728,0.747-1.447,1.454-2.171,2.179c-1.385,1.387-2.766,2.743-4.142,4.048
		c-0.645,0.613-1.289,1.229-1.934,1.824c-1.979,1.83-3.951,3.607-5.91,5.267c-4.482,3.77-6.72,7.93-6.72,12.482
		c0,3.84,1.563,6.932,4.69,9.28c2.778,2.133,6.122,3.2,10.03,3.2c1.281,0,2.845-0.177,4.691-0.534
		c13.868-2.63,28.769-3.946,44.695-3.946c2.778,0,6.883,0.499,12.322,1.493c5.443,0.996,9.585,1.495,12.43,1.495
		c1.007,0,1.963-0.079,2.882-0.229c3.048-0.47,5.651-1.699,7.78-3.72c2.778-2.63,4.163-5.972,4.163-10.026
		c0-4.053-1.401-7.415-4.213-10.081c-2.12-2.011-4.649-3.258-7.593-3.753c-0.965-0.165-1.968-0.248-3.02-0.248
		c-2.777,0-6.882-0.516-12.321-1.547c-5.444-1.031-9.586-1.547-12.431-1.547c-2.844,0-6.433,0.073-10.771,0.214
		c0.333-0.422,0.74-0.948,1.194-1.534c0.141-0.185,0.308-0.403,0.461-0.605c0.324-0.422,0.666-0.869,1.04-1.362
		c0.237-0.308,0.478-0.628,0.731-0.962c0.35-0.462,0.728-0.958,1.114-1.474c0.316-0.42,0.628-0.83,0.97-1.285
		c0.241-0.322,0.516-0.686,0.769-1.027c3.859-5.142,9.128-12.228,15.907-21.404c8.533-11.592,15.823-20.801,21.869-27.627
		c6.043-6.829,9.065-13.443,9.065-19.843c0-7.252-4.445-10.881-13.332-10.881c-4.841,0-12.093,0.304-21.766,0.907
		c-9.669,0.605-16.925,0.907-21.758,0.907c-0.936,0-2-0.027-3.185-0.081c-0.025,0-0.059-0.004-0.084-0.004
		c-1.16-0.054-2.433-0.129-3.817-0.229c-2.565-0.188-5.502-0.449-8.861-0.805c-7.074-0.747-12.355-1.121-15.84-1.121
		c-4.196,0-7.644,1.387-10.347,4.161C324.641,28.726,323.289,32.067,323.289,35.979z M468.917,256
		c0-17.042-2.071-33.599-5.868-49.493c-7.789,0.089-15.153,0.755-21.841,2.023c-2.191,0.422-4.171,0.628-6.042,0.628
		c-6.084,0-11.756-1.884-16.243-5.331c-6.204-4.658-9.623-11.474-9.623-19.189c0-7.758,3.589-15.048,10.052-20.483
		c3.726-3.156,7.572-6.968,11.522-11.411c-0.902-0.216-1.726-0.539-2.578-0.825c-5.493,4.102-12.172,6.273-19.562,6.273
		c-3.959,0-8.883-0.563-15.49-1.771c-6.176-1.129-8.65-1.216-9.262-1.216c-14.787,0-28.756,1.227-41.456,3.637
		c-2.936,0.567-5.53,0.844-7.931,0.844c-7.622,0-14.675-2.325-20.256-6.612c-7.414-5.564-11.498-13.698-11.498-22.901
		c0-6.735,2.221-16.628,12.741-25.478c10.767-9.122,22.058-21.275,33.734-36.292c-5.073-0.409-10.163-0.971-15.241-1.682
		c-11.835-1.638-20.572-7.749-24.859-16.825c-17.021-4.404-34.836-6.812-53.217-6.812C138.596,43.083,43.083,138.597,43.083,256
		S138.596,468.917,256,468.917C373.403,468.917,468.917,373.403,468.917,256z M458.337,172.667
		c1.747-2.219,6.188-8.151,13.308-17.792c4.558-6.19,8.492-11.18,11.864-15.104c0.416-0.487,0.861-1.021,1.26-1.472
		c3.627-4.099,5.439-8.065,5.439-11.906c0-4.352-2.67-6.529-8.001-6.529c-0.648,0-1.389,0.013-2.188,0.031
		c-0.357,0.008-0.757,0.021-1.144,0.033c-0.444,0.015-0.894,0.029-1.376,0.048c-0.553,0.021-1.136,0.046-1.742,0.073
		c-0.329,0.015-0.674,0.033-1.02,0.05c-1.7,0.083-3.518,0.181-5.589,0.31c-5.801,0.362-10.155,0.542-13.054,0.542
		c-2.133,0-5.327-0.222-9.568-0.669c-2.74-0.289-4.982-0.476-6.824-0.578c0.565,2.396,0.89,4.886,0.89,7.479
		c0,3.358-0.486,6.56-1.426,9.566c5.696,0.684,11.353,1.1,16.929,1.1c2.433,0,4.97-0.064,7.614-0.193
		c-5.9,8.81-11.677,16.532-17.324,23.192c0-0.002,0-0.002,0-0.002c-2.728,3.214-5.423,6.182-8.093,8.897
		c-0.129,0.131-0.253,0.248-0.382,0.376c-1.206,1.216-2.404,2.396-3.594,3.508c-1.326,1.235-2.641,2.412-3.95,3.52
		c-2.69,2.262-4.034,4.757-4.034,7.49c0,2.304,0.94,4.158,2.815,5.566c1.668,1.281,3.672,1.921,6.018,1.921
		c0.766,0,1.705-0.106,2.815-0.32c2.873-0.544,5.851-0.965,8.878-1.318c0.633-0.075,1.265-0.147,1.901-0.214
		c3.094-0.32,6.237-0.57,9.481-0.699c2.153-0.085,4.337-0.137,6.558-0.137c1.663,0,4.125,0.299,7.394,0.896
		c3.261,0.597,5.747,0.896,7.452,0.896c2.604,0,4.741-0.79,6.404-2.369c1.663-1.578,2.495-3.584,2.495-6.017
		c0-2.431-0.84-4.448-2.528-6.046c-1.688-1.601-3.81-2.402-6.371-2.402c-1.663,0-4.125-0.31-7.39-0.927
		c-3.265-0.62-5.751-0.929-7.456-0.929S460.94,172.582,458.337,172.667z"></path></g></svg>