<?xml version="1.0" encoding="iso-8859-1"?>
<!DOCTYPE svg PUBLIC "-//W3C//DTD SVG 1.1//EN" "http://www.w3.org/Graphics/SVG/1.1/DTD/svg11.dtd">
<svg 
 version="1.1" xmlns="http://www.w3.org/2000/svg" xmlns:xlink="http://www.w3.org/1999/xlink" x="0px" y="0px" width="512px"
	 height="512px" viewBox="0 0 512 512" enable-background="new 0 0 512 512" xml:space="preserve"
><g id="2069a460dcf28295e231f3111e057dd0"><g></g><path display="inline" d="M271.667,135.57h-33.593l8.479-27.62h16.231L271.667,135.57z M256,404.547
		c-32.812,0-69.321-24.034-69.321-5.675s36.51,33.403,69.321,33.403c32.819,0,69.321-15.044,69.321-33.403
		S288.819,404.547,256,404.547z M493.674,273.826C493.674,405.088,387.262,511.5,256,511.5
		c-131.263,0-237.674-106.412-237.674-237.674c0-45.863,13.024-88.675,35.531-124.991c-5.056-2.143-8.696-6.749-9.505-12.251
		c-2.979-20.3-6.533-32.518-10.653-46.667l-0.917-3.151C22.133,50.058,22.275,28.849,22.287,27.965
		c0.089-6.934,4.696-12.98,11.343-14.957c1.489-0.443,3.002-0.656,4.499-0.656c5.194,0,10.192,2.567,13.194,7.037
		c4.449,6.626,11.42,12.497,13.876,12.661c3.037-0.354,5.86-0.814,8.596-1.261c4.921-0.804,9.57-1.564,14.564-1.564
		c10.758,0,20.069,3.719,29.299,11.704c9.443,8.168,13.927,19.081,15.679,29.299C169.15,48.607,211.119,36.153,256,36.153
		c44.932,0,86.945,12.479,122.786,34.146c-0.166-12.777,3.308-29.695,16.596-41.194c9.233-7.984,18.545-11.704,29.303-11.704
		c4.998,0,9.647,0.76,14.572,1.566c2.731,0.447,5.555,0.907,8.452,1.253c2.584-0.157,9.548-6.019,13.996-12.64
		c2.99-4.501,7.988-7.081,13.199-7.081c1.481,0,2.982,0.208,4.46,0.642c6.673,1.958,11.292,8.042,11.385,14.998
		c0.012,0.886,0.158,22.09-10.491,58.803l-0.89,3.06c-4.132,14.174-7.694,26.415-10.681,46.755
		c-0.882,5.992-5.099,10.957-10.866,12.794c-2.085,0.664-4.154,1.062-6.205,1.325C478.115,177.217,493.674,223.696,493.674,273.826z
		 M395.347,77.715l6.035,85.259c1.237-1.694,2.661-3.315,4.363-4.796c12.294-10.63,20.61-31.224,34.444-34.525
		c0.503-0.12,1.018-0.213,1.535-0.296c0.743-0.12,1.497-0.205,2.279-0.205c0.657,0,1.33,0.039,2.011,0.118
		c0.538,0.062,1.076,0.093,1.613,0.093c1.818,0,3.617-0.344,5.381-0.905c3.366-22.917,7.481-36.254,12.031-51.929
		c10.115-34.87,9.864-54.181,9.864-54.181s-13.018,19.719-27.176,19.719c-0.568,0-1.141-0.033-1.714-0.099
		c-8.692-1.012-15.241-2.722-21.33-2.722c-6.193,0-11.914,1.77-18.939,7.843C390.612,54.187,395.347,77.715,395.347,77.715z
		 M345,234.214c-54.401,18.135-60.273,16.746-55.26,31.779c7.922,23.767,47.67,34.216,80.312,23.334s58.169-43.086,50.25-66.854
		C415.292,207.441,399.401,216.079,345,234.214z M186.679,177.271l35.624,17.33l10.819-35.581h43.512l11.714,35.581l36.974-17.33
		l-45.311-100c-7.88-0.958-15.88-1.507-24.011-1.507c-8.367,0-16.596,0.582-24.695,1.594L186.679,177.271z M91.702,222.474
		c-7.923,23.768,17.608,55.972,50.25,66.854s72.39,0.433,80.312-23.334c5.01-15.033-0.854-13.645-55.26-31.779
		C112.603,216.079,96.715,207.441,91.702,222.474z M60.031,134.282c1.76,0.559,3.555,0.901,5.373,0.901
		c0.538,0,1.079-0.029,1.621-0.093c0.681-0.08,1.35-0.118,2.008-0.118c16.216,0,24.873,23.452,38.258,35.03
		c1.71,1.481,3.134,3.099,4.368,4.793l6.034-85.259c0,0,0.77-3.921,0.681-9.421c0-0.01,0-0.021,0-0.031
		c-0.02-0.944-0.062-1.938-0.139-2.963c-0.004-0.08-0.008-0.153-0.016-0.232c-0.167-2.16-0.487-4.47-1.037-6.826
		c-0.016-0.07-0.038-0.141-0.054-0.211c-0.248-1.029-0.546-2.067-0.882-3.104c-0.116-0.348-0.256-0.691-0.38-1.039
		c-0.278-0.77-0.58-1.538-0.92-2.3c-0.183-0.412-0.384-0.818-0.585-1.226c-0.348-0.706-0.734-1.402-1.145-2.093
		c-0.24-0.408-0.479-0.813-0.743-1.211c-0.472-0.717-0.998-1.412-1.547-2.101c-0.263-0.334-0.507-0.677-0.793-1.003
		c-0.863-0.995-1.795-1.959-2.844-2.865c-7.021-6.071-12.742-7.841-18.932-7.841c-6.093,0-12.642,1.71-21.334,2.72
		c-0.572,0.065-1.146,0.099-1.718,0.099c-14.158,0-27.175-19.719-27.175-19.719s-0.248,19.315,9.868,54.185
		C52.546,98.027,56.666,111.362,60.031,134.282z M453.682,285.609c-23.465,14.924-62.903,39.666-78.841,47.636
		c-39.616,19.806-99.035,0-99.035,0h-39.612c0,0-59.418,19.806-99.03,0c-15.88-7.942-54.727-31.783-78.775-46.742
		C64.952,389.823,151.051,471.888,256,471.888C361.255,471.888,447.559,389.352,453.682,285.609z"></path></g></svg>